<svg width="1200" height="420" viewBox="0 0 1200 420" fill="none" xmlns="http://www.w3.org/2000/svg">
  <defs>
    <linearGradient id="bg" x1="0" y1="0" x2="1200" y2="420" gradientUnits="userSpaceOnUse">
      <stop stop-color="#155E3B"/>
      <stop offset="1" stop-color="#3A8E3A"/>
    </linearGradient>
  </defs>
  <rect width="1200" height="420" fill="url(#bg)"/>
  <g opacity="0.55">
    <ellipse cx="128" cy="350" rx="220" ry="120" fill="#245F2F"/>
    <ellipse cx="450" cy="365" rx="260" ry="120" fill="#2A7436"/>
    <ellipse cx="860" cy="355" rx="270" ry="120" fill="#2F7E39"/>
    <ellipse cx="1110" cy="345" rx="180" ry="100" fill="#3B8F40"/>
  </g>
  <g opacity="0.8">
    <path d="M56 290C94 246 120 226 160 194C173 240 163 266 145 300C118 302 88 297 56 290Z" fill="#5FAE4A"/>
    <path d="M1030 287C1068 241 1094 222 1134 192C1147 238 1137 262 1119 298C1092 300 1062 295 1030 287Z" fill="#5FAE4A"/>
  </g>
  <g opacity="0.92">
    <circle cx="252" cy="228" r="42" fill="#F2B24E"/>
    <circle cx="280" cy="235" r="22" fill="#F7C977"/>
    <circle cx="236" cy="212" r="8" fill="#1F2937"/>
    <circle cx="272" cy="226" r="6" fill="#1F2937"/>
    <path d="M229 247C241 259 261 261 276 246" stroke="#1F2937" stroke-width="4" stroke-linecap="round"/>
    <path d="M205 244C195 263 184 279 162 289" stroke="#E08D39" stroke-width="10" stroke-linecap="round"/>
    <path d="M315 246C329 260 345 274 363 282" stroke="#E08D39" stroke-width="10" stroke-linecap="round"/>
  </g>
  <g opacity="0.9">
    <ellipse cx="620" cy="232" rx="58" ry="36" fill="#8A5E3B"/>
    <circle cx="684" cy="212" r="24" fill="#A06E47"/>
    <circle cx="694" cy="206" r="4" fill="#111827"/>
    <path d="M702 221C708 228 716 230 724 226" stroke="#111827" stroke-width="3" stroke-linecap="round"/>
    <path d="M568 234C540 242 520 252 497 268" stroke="#8A5E3B" stroke-width="8" stroke-linecap="round"/>
    <path d="M662 260C674 280 688 296 704 309" stroke="#8A5E3B" stroke-width="8" stroke-linecap="round"/>
  </g>
  <g opacity="0.9">
    <ellipse cx="920" cy="246" rx="52" ry="34" fill="#A8692D"/>
    <circle cx="970" cy="228" r="21" fill="#C48444"/>
    <circle cx="978" cy="223" r="4" fill="#111827"/>
    <path d="M871 244C850 232 835 214 821 196" stroke="#C48444" stroke-width="8" stroke-linecap="round"/>
    <path d="M886 271C900 292 914 306 930 319" stroke="#A8692D" stroke-width="8" stroke-linecap="round"/>
  </g>
</svg>
